<?xml version="1.0" encoding="UTF-8"?>
<!DOCTYPE svg PUBLIC "-//W3C//DTD SVG 1.1//EN" "http://www.w3.org/Graphics/SVG/1.1/DTD/svg11.dtd">
<!-- Creator: CorelDRAW 2020 (64-Bit) -->
<svg xmlns="http://www.w3.org/2000/svg" xml:space="preserve" width="259.25mm" height="42.1144mm" version="1.1" style="shape-rendering:geometricPrecision; text-rendering:geometricPrecision; image-rendering:optimizeQuality; fill-rule:evenodd; clip-rule:evenodd"
viewBox="0 0 25915.44 4209.88"
 xmlns:xlink="http://www.w3.org/1999/xlink"
 xmlns:xodm="http://www.corel.com/coreldraw/odm/2003">
 <defs>
  <style type="text/css">
   <![CDATA[
    .fil5 {fill:#84716B}
    .fil2 {fill:black}
    .fil7 {fill:#686868}
    .fil6 {fill:#8E8E8E}
    .fil4 {fill:#AFAFAF}
    .fil3 {fill:white}
    .fil8 {fill:#FEFEFE;fill-rule:nonzero}
    .fil1 {fill:#373435;fill-rule:nonzero}
    .fil0 {fill:#84716B;fill-rule:nonzero}
   ]]>
  </style>
 </defs>
 <g id="Capa_x0020_1">
  <metadata id="CorelCorpID_0Corel-Layer"/>
  <g id="_2208978432000">
   <path class="fil0" d="M4230.44 1482.17l0 1255.1 165.77 0c158.31,0 281.11,-54.37 367.49,-163.13 86.4,-108.76 129.81,-263.56 129.81,-463.98 0,-200.42 -43.41,-355.22 -130.24,-464.42 -87.28,-109.2 -209.62,-163.57 -367.06,-163.57l-165.77 0zm-481.51 1486.65l0 -1718.2 580.63 0c169.72,0 306.54,12.28 410.47,36.84 104.38,24.12 198.23,64.91 282.43,121.04 122.35,81.57 217.96,184.19 286.36,308.74 68.85,124.1 103.06,256.11 103.06,395.56 0,133.76 -26.31,258.3 -78.94,373.64 -53.06,114.9 -128.93,214.44 -228.48,298.64 -71.92,59.21 -156.56,104.37 -254.36,136.39 -97.79,31.58 -202.61,47.36 -314.87,47.36l-786.3 0z"/>
   <path id="1" class="fil0" d="M5670.16 2968.82l0 -1139.33 371.01 0 0 1139.33 -371.01 0zm-7.89 -1607.26c0,-53.94 18.85,-99.98 57.01,-138.14 38.15,-38.16 83.76,-57.01 137.26,-57.01 54.82,0 100.86,18.85 138.58,56.57 37.72,37.72 56.57,83.76 56.57,138.58 0,54.38 -18.85,99.99 -57.01,137.71 -38.15,37.71 -84.2,56.57 -138.14,56.57 -53.5,0 -99.11,-18.86 -137.26,-57.01 -38.16,-38.16 -57.01,-83.77 -57.01,-137.27z"/>
   <path id="2" class="fil0" d="M6346.39 2968.82l0 -171.03 302.6 0c70.6,0 119.72,-9.66 147.79,-28.95 27.63,-19.29 41.66,-51.31 41.66,-96.91 0,-58.33 -57.02,-104.37 -171.04,-138.58 -34.21,-10.09 -61.4,-18.42 -81.13,-24.56 -111.83,-36.84 -189.01,-78.06 -230.23,-124.54 -41.65,-46.05 -62.27,-109.2 -62.27,-188.57 0,-119.29 39.03,-210.06 117.53,-272.34 78.5,-62.71 192.08,-93.85 340.74,-93.85l296.89 0 0 171.03 -256.98 0c-42.09,0 -74.98,7.46 -99.1,22.37 -24.12,14.9 -35.97,35.96 -35.97,62.27 0,47.36 50,85.96 149.54,117.1 21.93,7.45 39.04,13.16 49.99,16.66 121.48,39.47 203.92,84.2 246.9,134.63 42.54,50.43 64.03,121.48 64.03,213.13 0,124.98 -39.03,223.22 -117.53,294.7 -78.5,71.48 -186.82,107.44 -324.52,107.44l-378.9 0z"/>
   <path id="3" class="fil0" d="M8365.01 2685.09c-47.8,105.69 -112.71,186.82 -193.84,242.51 -81.57,55.7 -176.29,83.33 -284.17,83.33 -166.21,0 -301.72,-56.14 -406.53,-168.41 -104.81,-112.26 -157.43,-257.85 -157.43,-436.79 0,-179.79 54.38,-327.15 162.7,-441.61 108.32,-114.46 245.58,-171.47 411.79,-171.47 114.46,0 210.5,24.56 287.68,74.11 77.18,49.11 132.87,121.48 167.08,217.52l-160.94 92.53c-17.98,-71.04 -45.17,-124.54 -81.57,-160.06 -36.4,-35.53 -81.57,-53.07 -134.63,-53.07 -79.82,0 -140.78,36.84 -183.31,110.95 -42.53,74.11 -63.59,182 -63.59,323.21 0,151.73 17.98,261.8 53.94,330.66 35.96,68.85 93.41,103.49 172.35,103.49 58.33,0 111.39,-21.04 159.63,-62.71 48.23,-41.66 82.88,-98.23 104.37,-168.84l146.48 84.64z"/>
   <path id="4" class="fil0" d="M9264.44 2411.44c0,-154.8 -15.78,-271.46 -46.92,-349.52 -31.58,-77.62 -78.94,-116.65 -142.53,-116.65 -59.2,0 -103.49,36.84 -132.44,110.95 -29.38,74.11 -43.85,185.94 -43.85,335.93 0,155.67 15.79,272.77 47.8,351.27 31.58,78.49 78.94,117.53 141.65,117.53 59.21,0 103.5,-37.28 132.44,-111.83 29.39,-74.55 43.85,-186.82 43.85,-337.68zm-181.55 599.49c-167.09,0 -306.11,-60.96 -417.06,-182.44 -111.39,-121.9 -167.08,-274.08 -167.08,-457.39 0,-174.99 53.06,-314.87 159.19,-420.56 106.12,-105.25 247.77,-157.87 424.94,-157.87 166.21,0 304.35,60.96 415.3,183.31 110.95,121.91 166.21,274.52 166.21,457.83 0,176.73 -52.62,317.06 -157.43,421 -104.81,103.93 -246.03,156.12 -424.07,156.12z"/>
   <path id="5" class="fil0" d="M9906.48 1829.49l371 0 0 695.08c0,102.62 14.03,174.99 41.66,217.52 28.06,42.53 74.55,63.59 139.89,63.59 67.11,0 114.47,-21.05 142.53,-63.59 27.63,-42.53 41.66,-114.9 41.66,-217.52l0 -695.08 184.18 0 0 737.19c0,148.23 -38.15,259.17 -114.9,333.29 -76.74,74.11 -192.08,110.96 -346,110.96 -157,0 -272.78,-35.97 -347.76,-108.32 -74.99,-72.36 -112.27,-184.19 -112.27,-335.93l0 -737.19z"/>
   <path id="6" class="fil0" d="M11333.05 2226.38l0 742.45 -184.18 0 0 -954.27c0,-76.74 15.34,-132.88 45.6,-168.4 30.26,-35.53 77.18,-53.5 140.34,-53.5 52.18,0 98.67,14.9 139.46,44.73 41.21,29.38 82.88,79.37 125.85,149.97l253.92 413.55 0 -571.42 184.19 0 0 991.54c0,68.4 -10.09,117.09 -30.26,146.47 -20.17,28.95 -53.5,43.42 -99.11,43.42 -34.65,0 -65.79,-11.41 -94.29,-34.65 -28.51,-23.24 -63.59,-66.66 -104.81,-130.69l-376.71 -619.21z"/>
   <polygon id="7" class="fil0" points="12548.25,2968.82 12548.25,2024.2 12243.02,2024.2 12243.02,1829.49 13224.48,1829.49 13224.48,2024.2 12919.25,2024.2 12919.25,2968.82 "/>
   <path id="8" class="fil1" d="M15865.82 2549.58c-71.92,149.98 -174.54,264.44 -307.86,342.94 -132.88,78.93 -290.31,118.41 -471.87,118.41 -117.54,0 -226.3,-16.67 -326.28,-50 -100.42,-33.33 -190.33,-82.88 -270.14,-147.79 -107.01,-86.39 -187.26,-187.26 -240.76,-302.59 -53.5,-115.34 -80.25,-242.96 -80.25,-383.29 0,-267.51 87.27,-486.34 261.36,-657.38 174.55,-170.59 398.64,-256.11 672.73,-256.11 157.43,0 294.69,31.58 411.79,94.29 116.65,63.15 217.95,160.51 303.91,292.07l-218.39 160.94c-52.19,-111.39 -116.22,-195.15 -191.21,-250.85 -75.43,-55.69 -161.38,-83.32 -258.3,-83.32 -148.23,0 -262.68,59.64 -344.25,179.36 -81.13,119.29 -121.91,288.12 -121.91,506.51 0,201.3 46.49,363.56 139.9,486.78 93.41,123.23 215.76,185.06 367.49,185.06 95.6,0 182.87,-31.13 261.81,-92.97 78.94,-62.28 147.79,-153.93 206.55,-275.84l205.67 133.75z"/>
   <path id="9" class="fil1" d="M15958.35 2968.82l296.9 -928.83c29.38,-92.54 62.71,-157 99.98,-193.4 37.28,-35.97 87.71,-53.94 150.85,-53.94 59.21,0 105.69,15.78 139.02,47.8 33.34,31.57 64.47,92.09 92.54,181.55l307.42 946.81 -389.87 0 -62.71 -207.87 -379.34 0 -60.52 207.87 -194.28 0zm302.16 -365.74l284.17 0 -136.39 -494.68 -147.79 494.68z"/>
   <path id="10" class="fil1" d="M17634.46 2616.67c0,70.16 11.85,117.97 35.09,143.41 23.68,24.99 68.84,37.72 135.51,37.72l92.53 0 0 171.03 -315.74 0c-117.1,0 -199.54,-25.43 -247.34,-75.87 -47.36,-50.43 -71.04,-140.77 -71.04,-271.01l0 -1492.36 371 0 0 1487.09z"/>
   <path id="11" class="fil1" d="M19013.68 2685.09c-47.8,105.69 -112.71,186.82 -193.84,242.51 -81.57,55.7 -176.29,83.33 -284.17,83.33 -166.21,0 -301.72,-56.14 -406.53,-168.41 -104.81,-112.26 -157.43,-257.85 -157.43,-436.79 0,-179.79 54.38,-327.15 162.7,-441.61 108.32,-114.46 245.58,-171.47 411.79,-171.47 114.46,0 210.5,24.56 287.68,74.11 77.18,49.11 132.87,121.48 167.08,217.52l-160.94 92.53c-17.98,-71.04 -45.17,-124.54 -81.57,-160.06 -36.4,-35.53 -81.57,-53.07 -134.63,-53.07 -79.82,0 -140.78,36.84 -183.31,110.95 -42.53,74.11 -63.59,182 -63.59,323.21 0,151.73 17.98,261.8 53.94,330.66 35.96,68.85 93.41,103.49 172.35,103.49 58.33,0 111.39,-21.04 159.63,-62.71 48.23,-41.66 82.88,-98.23 104.37,-168.84l146.48 84.64z"/>
   <path id="12" class="fil1" d="M19231.63 1829.49l371 0 0 695.08c0,102.62 14.03,174.99 41.66,217.52 28.06,42.53 74.55,63.59 139.89,63.59 67.11,0 114.47,-21.05 142.53,-63.59 27.63,-42.53 41.66,-114.9 41.66,-217.52l0 -695.08 184.18 0 0 737.19c0,148.23 -38.15,259.17 -114.9,333.29 -76.74,74.11 -192.08,110.96 -346,110.96 -157,0 -272.78,-35.97 -347.76,-108.32 -74.99,-72.36 -112.27,-184.19 -112.27,-335.93l0 -737.19z"/>
   <path id="13" class="fil1" d="M20858.17 2616.67c0,70.16 11.85,117.97 35.09,143.41 23.68,24.99 68.84,37.72 135.51,37.72l92.53 0 0 171.03 -315.74 0c-117.1,0 -199.54,-25.43 -247.34,-75.87 -47.36,-50.43 -71.04,-140.77 -71.04,-271.01l0 -1492.36 371 0 0 1487.09z"/>
   <path id="14" class="fil1" d="M21145.42 2968.82l296.9 -928.83c29.38,-92.54 62.71,-157 99.98,-193.4 37.28,-35.97 87.71,-53.94 150.85,-53.94 59.21,0 105.69,15.78 139.02,47.8 33.34,31.57 64.47,92.09 92.54,181.55l307.42 946.81 -389.87 0 -62.71 -207.87 -379.34 0 -60.52 207.87 -194.28 0zm302.16 -365.74l284.17 0 -136.39 -494.68 -147.79 494.68z"/>
   <polygon id="15" class="fil1" points="22618.92,2968.82 22618.92,2024.2 22313.7,2024.2 22313.7,1829.49 23295.15,1829.49 23295.15,2024.2 22989.93,2024.2 22989.93,2968.82 "/>
   <path id="16" class="fil1" d="M24178.82 2411.44c0,-154.8 -15.78,-271.46 -46.92,-349.52 -31.58,-77.62 -78.94,-116.65 -142.53,-116.65 -59.2,0 -103.49,36.84 -132.44,110.95 -29.38,74.11 -43.85,185.94 -43.85,335.93 0,155.67 15.79,272.77 47.8,351.27 31.58,78.49 78.94,117.53 141.65,117.53 59.21,0 103.5,-37.28 132.44,-111.83 29.39,-74.55 43.85,-186.82 43.85,-337.68zm-181.55 599.49c-167.09,0 -306.11,-60.96 -417.06,-182.44 -111.39,-121.9 -167.08,-274.08 -167.08,-457.39 0,-174.99 53.06,-314.87 159.19,-420.56 106.12,-105.25 247.77,-157.87 424.94,-157.87 166.21,0 304.35,60.96 415.3,183.31 110.95,121.91 166.21,274.52 166.21,457.83 0,176.73 -52.62,317.06 -157.43,421 -104.81,103.93 -246.03,156.12 -424.07,156.12z"/>
   <path id="17" class="fil1" d="M24828.74 2968.82l0 -1139.33 496.88 0c153.04,0 269.7,28.94 349.51,86.83 79.38,57.45 119.29,141.65 119.29,252.17 0,76.3 -17.54,138.58 -53.06,186.38 -35.53,47.79 -89.03,81.56 -160.07,101.3l334.17 512.65 -434.16 0 -258.73 -536.77 0 -20.61c71.48,-10.53 123.23,-33.33 156.56,-68.85 32.89,-35.52 49.55,-86.39 49.55,-152.17 0,-66.66 -17.54,-117.53 -52.62,-151.73 -35.53,-34.21 -87.28,-51.31 -156.12,-51.31 -10.09,0 -18.42,0 -24.56,0.44 -6.14,0.44 -11.41,1.32 -16.66,2.19l0 978.83 -349.96 0z"/>
   <path class="fil2" d="M255.61 6.9c-121.28,18.52 -212.72,102.13 -242.31,213.6 -21.96,82.73 -10.1,344.43 -10.1,447.69l0 3193.36c-0.03,133.22 22.85,234.02 150.08,307.72 97.77,56.63 289.41,37.51 417.67,37.51 176.71,0 2215.23,6.95 2283.78,-3.16 120.7,-17.78 209.01,-105.19 239.51,-213.4 21.96,-77.96 10.37,-348.41 10.37,-447.99l0 -3193.36c0.03,-82.28 -0.19,-127.26 -36.21,-192.37 -107.3,-193.96 -317.86,-152.84 -531.54,-152.84 -175.57,0 -2214.6,-6.93 -2281.25,3.25z"/>
   <path class="fil3" d="M258.87 104.12c-63.83,13.66 -103.23,45.31 -129.17,87.81 -36.12,59.18 -30.59,104.48 -30.59,181.88l0 3462.79c-0.01,77.34 -5.78,123.94 30.15,182.24 73.51,119.27 212.19,92.21 341.89,92.21 721.82,0 1443.66,0 2165.49,0 132.28,0 267.4,27.19 341.68,-92.37 35.5,-57.15 30.35,-105.85 30.34,-182.08l0 -3462.79c0,-76.92 5.97,-123.71 -30.22,-182.11 -24.48,-39.53 -71.91,-78.03 -129.92,-88.79 -59.15,-10.96 -1998.4,-3.55 -2162.82,-3.55 -72.19,0 -380.84,-5.09 -426.83,4.76z"/>
   <path class="fil2" d="M306.44 433.69l0 733.47c0,67.4 33.77,64.44 94.86,64.44l2327.65 0c58.3,0 92.18,2.88 92.18,-64.44l-0.02 -738.47c0,-59.08 -32.72,-59.75 -79.68,-59.71l-2370.06 -0.05c-48.52,-0.02 -64.93,15.54 -64.93,64.76z"/>
   <polygon class="fil4" points="400.79,1136.4 2725.55,1137.5 2726.89,464.5 402.2,463.18 "/>
   <polygon class="fil5" points="406.17,1132.17 2720.72,1132.1 2721.67,469.05 406.29,468.56 "/>
   <path class="fil2" d="M1014.2 3390.33c-30.68,10.45 -34.35,30.89 -34.31,66.9l0.14 299.57c-0.61,95.78 27.09,84.7 114.82,84.71 131.59,0.02 975.98,4.88 999.98,-2.55 49.94,-15.48 32.89,-113.36 32.89,-167.01 0,-302.84 21.3,-284.36 -114.78,-284.34 -163.37,0.03 -966.95,-8.09 -998.74,2.73z"/>
   <path class="fil2" d="M2403.32 2737.96c-50.84,16.16 -36.04,73.66 -36.04,160.6l0 778.38c0,52.25 -16.65,146.89 32.42,161.74 17.1,5.18 372.18,5.18 389.11,-0.01 49.01,-15.03 32.3,-109.19 32.3,-161.73l0 -778.38c0,-52.31 16.33,-146.33 -32.94,-160.7 -20.17,-5.89 -368.21,-5.19 -384.85,0.1z"/>
   <path class="fil2" d="M1233.64 1434.48c-41.88,15.46 -31.05,65.21 -31.04,116.88 0.04,318.88 -34.02,332.59 106.8,332.54 71.24,-0.02 559.14,6.07 584.23,-3.14 41.25,-15.13 31.41,-67.45 31.4,-114.84l-0.47 -289.64c-6.36,-55.58 -51.95,-46 -106.22,-45.97 -75.45,0.05 -555.61,-6.57 -584.7,4.18z"/>
   <path class="fil2" d="M2128.25 1435.61c-41.17,19.45 -29.2,63.98 -29.2,115.75l1.09 293.23c8.5,47.46 55.56,39.33 107.4,39.31 72.95,-0.03 555.8,6.75 584.22,-3.37 38.64,-13.75 29.34,-65.36 29.34,-114.61 -0.02,-330.54 33.88,-335.66 -109.62,-335.62 -74.18,0.03 -555.92,-7.6 -583.23,5.31z"/>
   <path class="fil2" d="M356.39 1883.89l571.32 0c63.04,0 80.84,-5.33 81.01,-68.08l0.05 -304.37c0.01,-104 -32.82,-81.14 -248.22,-81.14 -111.43,0 -222.87,0 -334.31,0 -175.26,0 -138.76,-28.65 -139.58,355.57 -0.14,68.8 -7.03,98.02 69.72,98.02z"/>
   <polygon class="fil4" points="1074.46,3745.94 2031.63,3747.25 2033.35,3483.22 1076,3482.1 "/>
   <polygon class="fil3" points="1079.64,3741.99 2028.72,3741.98 2028.21,3487.52 1079.02,3487.31 "/>
   <polygon class="fil4" points="2461.62,3745.57 2725.61,3747.19 2726.85,2830.88 2463.91,2830.03 "/>
   <polygon class="fil5" points="2466.81,3742.18 2720.91,3741.93 2721.65,2836.79 2466.88,2836.59 "/>
   <path class="fil2" d="M327.7 2083.98c-57.87,13.45 -41.02,83.09 -41.02,185.88 0,298.95 -42.39,266.89 189.47,266.89 301.16,0 264.43,35.86 264.43,-192.04 0,-42.73 5.43,-197.19 -2.42,-227.44 -14.09,-54.27 -127.97,-34.59 -187.17,-34.59 -42.8,0 -194.09,-5.49 -223.29,1.29z"/>
   <path class="fil2" d="M1714.91 2084.12c-38.32,7.52 -41.34,28.58 -41.19,70.82 1.44,431.63 -47.97,381.81 189.54,381.81 296.99,0 264.47,40.32 264.47,-192.04 0,-41.35 5.14,-199.63 -2.28,-227.31 -8.74,-32.58 -34.89,-35.01 -72.39,-34.83 -66.59,0.32 -307.35,-4.5 -338.14,1.54z"/>
   <path class="fil2" d="M326.22 2736.69c-56.29,11.58 -39.55,91.53 -39.55,186.82 0,47.39 -6.27,191.61 1.45,228.06 12.41,58.61 130.23,37.54 188.02,37.54 214.66,0 265.09,29.35 264.54,-75.88 -0.32,-61.4 3.97,-319.29 -2.39,-342.79 -8.53,-31.51 -35.65,-35.44 -72.4,-35.29 -65.73,0.27 -310.26,-4.5 -339.67,1.55z"/>
   <path class="fil2" d="M1017.51 2085.46c-38.29,12.47 -37.75,27.24 -37.51,74.54 2.1,426.12 -49.08,376.75 194.68,376.75 39.11,0 202.83,4.55 228.05,-3.57 32.29,-10.42 31.5,-38.44 31.28,-78.66 -2.34,-418.3 50.43,-371.83 -194.46,-371.83 -39.66,0 -197.86,-5.1 -222.04,2.77z"/>
   <path class="fil2" d="M2404.29 2085.25c-37.33,11.96 -37.33,28.56 -37.11,74.76 0.29,61.26 -3.95,318.62 2.36,342.04 9.12,33.88 38.87,34.91 77.47,34.75 419.8,-1.76 374.09,49.67 374.09,-197.08 0,-296.46 33.96,-257.03 -194.44,-257.03 -39.42,0 -198.31,-5.15 -222.38,2.56z"/>
   <path class="fil2" d="M317.95 3392.57c-36.65,16.74 -31.59,33.6 -31.33,79.77 2.37,414.77 -51.21,369.16 199.5,369.16 287.29,0 254.46,40.22 254.46,-199.49 0,-37.91 4.49,-203.81 -4.18,-225.41 -17.12,-42.65 -126.32,-29.01 -195.39,-29.01 -41.53,0 -197.34,-6.78 -223.06,4.97z"/>
   <path class="fil2" d="M2127.78 3123.08l-0.07 -289.39c-0.01,-121.73 -1.32,-98.47 -279.43,-98.47 -201.03,0 -174.56,-24.94 -174.56,208.24 0,61.86 -2.46,128.67 -0.16,189.89 2.74,72.84 68.58,55.76 134.8,55.75 63.2,0 126.4,0 189.6,0 73.9,0 129.82,17.54 129.81,-66.02z"/>
   <path class="fil2" d="M1374.27 2735.22l-334.93 0c-75.49,0 -59.26,62.57 -59.25,123.42 0,61.54 0,123.07 0,184.61 0,173.89 -16.08,145.85 224.53,145.85 246.27,0 229.33,27.24 229.33,-140.86 0,-61.54 0,-123.07 0,-184.61 0,-63.45 16.42,-128.41 -59.68,-128.41z"/>
   <path class="fil3" d="M907.34 1526.22l-519.83 -0.95c-8.13,42.14 -4.92,210.07 -2.11,259.85l524.75 -0.02c0.66,-58.69 7.13,-210.25 -2.81,-258.88z"/>
   <polygon class="fil3" points="1829.75,1785.21 1829.02,1526.51 1302.36,1526.86 1301.17,1786.53 "/>
   <path class="fil3" d="M2720.23 1525.37l-520.26 0.69 -2.71 258.32 525.26 0.75c2.23,-54.18 6.44,-214.16 -2.29,-259.76z"/>
   <polygon class="fil4" points="1767.67,3093.55 2032.88,3095.27 2033.22,2830.8 1770.24,2830.04 "/>
   <polygon class="fil4" points="1074.29,3093.61 1339.23,3095.28 1339.82,2830.68 1076.82,2829.99 "/>
   <polygon class="fil4" points="380.98,3745.68 645.11,3747.19 646.2,3483.19 382.82,3482.12 "/>
   <polygon class="fil3" points="1769.52,2229.95 1769.51,2404.58 1769.42,2438.99 1793.38,2441.09 2007.96,2440.7 2031.57,2439.5 2031.73,2179.95 1769.49,2178.55 "/>
   <polygon class="fil3" points="1076.09,2438.99 1338.27,2440.62 1338.26,2180.01 1076.02,2178.55 "/>
   <polygon class="fil3" points="2463.31,2439.18 2725.09,2440.57 2725.22,2180.32 2463.16,2178.57 "/>
   <polygon class="fil3" points="382.61,2438.93 644.5,2440.59 644.57,2179.97 382.92,2178.61 "/>
   <path class="fil3" d="M389.44 3093.18l248.39 0.04c9.84,-42.29 3.34,-202.97 2.98,-256.63l-253.79 -0.04c-3.74,37.36 -4.38,224.91 2.42,256.63z"/>
   <polygon class="fil3" points="386.14,3741.99 641.04,3741.94 640.93,3487.33 385.84,3487.24 "/>
   <polygon class="fil3" points="1079.47,3091.21 1334.92,3090.79 1334.89,2836.3 1080.88,2836.59 "/>
   <polygon class="fil3" points="1772.96,3091.21 2027.66,3090.7 2028.16,2836.92 1773.69,2836.6 "/>
   <path class="fil6" d="M2720.23 1525.37c8.73,45.6 4.52,205.58 2.29,259.76l-525.26 -0.75 2.71 -258.32c-9.23,8.51 -7.29,-12.74 -7.62,15.32l0.24 247.63 532.07 1.36c9.4,-32.58 3.5,-203.08 3.5,-248.99 -0.74,-32.26 1.27,-6.16 -7.94,-16.01z"/>
   <path class="fil7" d="M1829.75 1785.21l-528.58 1.32 1.19 -259.67c-7.95,7.8 -7.3,-11.41 -6.06,14.52l0.03 246.81c19.57,6.55 466.2,7.78 512.41,4.27 0.43,-0.03 7.89,-0.55 9.61,-0.99 11.31,-2.85 6.01,-2.2 11.41,-6.26z"/>
   <path class="fil6" d="M907.34 1526.22c9.94,48.63 3.47,200.2 2.81,258.88l-524.75 0.02c-2.81,-49.78 -6.02,-217.71 2.11,-259.85 -8.21,7.93 -6.39,-14.38 -7.89,16.11 0,49.13 -6.1,212.2 3.32,248.22l530.14 0.73 2.46 -248.95c-0.34,-28.17 1.32,-5.98 -8.21,-15.16z"/>
   <path class="fil4" d="M389.44 3093.18c-6.8,-31.72 -6.16,-219.27 -2.42,-256.63l253.79 0.04c0.36,53.65 6.86,214.33 -2.98,256.63 6.79,-3.51 8.26,3.48 9.03,-24.69l-3.05 -237.67 -260.02 -0.79c-1.51,6.24 -8.43,222.38 -3.12,248.34 3.02,14.79 -0.72,7.15 8.78,14.77z"/>
   <path class="fil8" d="M828.68 923.91l55.97 -5.03c2.62,22.64 8.8,41.18 18.54,55.76 9.75,14.46 24.84,26.2 45.28,35.22 20.43,8.91 43.49,13.42 69.06,13.42 22.74,0 42.76,-3.36 60.16,-10.17 17.4,-6.82 30.29,-16.14 38.79,-27.99 8.49,-11.85 12.79,-24.73 12.79,-38.57 0,-14.04 -4.09,-26.31 -12.27,-36.9 -8.18,-10.48 -21.69,-19.28 -40.55,-26.51 -12.06,-4.62 -38.79,-11.96 -80.18,-21.91 -41.4,-9.96 -70.32,-19.28 -86.89,-28.09 -21.48,-11.32 -37.42,-25.36 -47.9,-42.02 -10.58,-16.66 -15.82,-35.43 -15.82,-56.07 0,-22.85 6.5,-44.12 19.39,-63.83 12.9,-19.81 31.65,-34.8 56.49,-45.07 24.74,-10.27 52.3,-15.4 82.59,-15.4 33.33,0 62.78,5.35 88.25,16.14 25.47,10.69 45.07,26.51 58.8,47.47 13.73,20.86 21.07,44.54 22.11,70.95l-57.22 4.41c-3.04,-28.41 -13.42,-49.89 -31.13,-64.36 -17.71,-14.56 -43.91,-21.8 -78.5,-21.8 -36.06,0 -62.37,6.61 -78.82,19.81 -16.45,13.21 -24.73,29.14 -24.73,47.79 0,16.13 5.87,29.45 17.5,39.94 11.53,10.37 41.39,21.16 89.82,32.07 48.42,11.01 81.65,20.54 99.67,28.72 26.1,12.05 45.48,27.25 57.96,45.79 12.48,18.45 18.65,39.73 18.65,63.84 0,24 -6.81,46.42 -20.54,67.59 -13.72,21.17 -33.33,37.63 -59,49.36 -25.68,11.75 -54.5,17.61 -86.68,17.61 -40.66,0 -74.73,-5.98 -102.19,-17.81 -27.56,-11.85 -49.05,-29.67 -64.67,-53.56 -15.72,-23.79 -23.89,-50.73 -24.73,-80.81z"/>
   <path id="1" class="fil8" d="M1218.26 1068.54l172.72 -450.25 65.51 0 183.31 450.25 -67.81 0 -52.08 -136.46 -189.6 0 -48.84 136.46 -63.2 0zm129.54 -184.88l153.43 0 -46.95 -124.82c-14.14,-37.95 -24.84,-69.28 -32.28,-94.02 -6.19,29.35 -14.46,58.17 -24.84,86.68l-49.36 132.16z"/>
   <polygon id="2" class="fil8" points="1684.55,1068.54 1684.55,618.29 1744.29,618.29 1744.29,1015.72 1965.64,1015.72 1965.64,1068.54 "/>
   <polygon id="3" class="fil8" points="2038.07,1068.54 2038.07,618.29 2363.18,618.29 2363.18,671.11 2097.8,671.11 2097.8,809.46 2346.2,809.46 2346.2,862.28 2097.8,862.28 2097.8,1015.72 2373.87,1015.72 2373.87,1068.54 "/>
  </g>
 </g>
</svg>
